<mxfile host="app.diagrams.net" modified="2021-01-07T08:49:26.382Z" agent="5.0 (X11; Linux x86_64) AppleWebKit/537.36 (KHTML, like Gecko) Chrome/87.0.4280.66 Safari/537.36" etag="DX1hYTzfUJ0ekABKlGqL" version="14.1.8" type="github">
  <diagram id="bRoCvYzDozlGivYPbf-j" name="Page-1">
    <mxGraphModel dx="1105" dy="306" grid="1" gridSize="10" guides="1" tooltips="1" connect="1" arrows="1" fold="1" page="1" pageScale="1" pageWidth="250" pageHeight="500" math="0" shadow="0">
      <root>
        <mxCell id="0" />
        <mxCell id="1" parent="0" />
        <mxCell id="jILajoDedbYtFzf_JmT7-1" value=":DataGeneration&#xa;Controller" style="shape=umlLifeline;perimeter=lifelinePerimeter;container=1;collapsible=0;recursiveResize=0;rounded=0;shadow=0;strokeWidth=1;" vertex="1" parent="1">
          <mxGeometry x="285" y="830" width="100" height="250" as="geometry" />
        </mxCell>
        <mxCell id="jILajoDedbYtFzf_JmT7-2" value="" style="points=[];perimeter=orthogonalPerimeter;rounded=0;shadow=0;strokeWidth=1;" vertex="1" parent="jILajoDedbYtFzf_JmT7-1">
          <mxGeometry x="45" y="70" width="10" height="150" as="geometry" />
        </mxCell>
        <mxCell id="jILajoDedbYtFzf_JmT7-3" value="dispatch" style="verticalAlign=bottom;startArrow=oval;endArrow=block;startSize=8;shadow=0;strokeWidth=1;" edge="1" parent="jILajoDedbYtFzf_JmT7-1" target="jILajoDedbYtFzf_JmT7-2">
          <mxGeometry relative="1" as="geometry">
            <mxPoint x="-15" y="70" as="sourcePoint" />
          </mxGeometry>
        </mxCell>
        <mxCell id="jILajoDedbYtFzf_JmT7-4" value=":ExecuterService" style="shape=umlLifeline;perimeter=lifelinePerimeter;container=1;collapsible=0;recursiveResize=0;rounded=0;shadow=0;strokeWidth=1;" vertex="1" parent="1">
          <mxGeometry x="465" y="830" width="100" height="250" as="geometry" />
        </mxCell>
        <mxCell id="jILajoDedbYtFzf_JmT7-5" value="" style="points=[];perimeter=orthogonalPerimeter;rounded=0;shadow=0;strokeWidth=1;" vertex="1" parent="jILajoDedbYtFzf_JmT7-4">
          <mxGeometry x="45" y="80" width="10" height="140" as="geometry" />
        </mxCell>
        <mxCell id="jILajoDedbYtFzf_JmT7-6" value="submit" style="verticalAlign=bottom;endArrow=block;entryX=0;entryY=0;shadow=0;strokeWidth=1;" edge="1" parent="1" source="jILajoDedbYtFzf_JmT7-2" target="jILajoDedbYtFzf_JmT7-5">
          <mxGeometry relative="1" as="geometry">
            <mxPoint x="440" y="910" as="sourcePoint" />
          </mxGeometry>
        </mxCell>
        <mxCell id="jILajoDedbYtFzf_JmT7-7" value=":DemoTransaction&#xa;Generator" style="shape=umlLifeline;perimeter=lifelinePerimeter;container=1;collapsible=0;recursiveResize=0;rounded=0;shadow=0;strokeWidth=1;" vertex="1" parent="1">
          <mxGeometry x="615" y="830" width="100" height="250" as="geometry" />
        </mxCell>
        <mxCell id="jILajoDedbYtFzf_JmT7-8" value="" style="points=[];perimeter=orthogonalPerimeter;rounded=0;shadow=0;strokeWidth=1;" vertex="1" parent="jILajoDedbYtFzf_JmT7-7">
          <mxGeometry x="45" y="80" width="10" height="140" as="geometry" />
        </mxCell>
        <mxCell id="jILajoDedbYtFzf_JmT7-9" value=":Transaction" style="shape=umlLifeline;perimeter=lifelinePerimeter;container=1;collapsible=0;recursiveResize=0;rounded=0;shadow=0;strokeWidth=1;" vertex="1" parent="1">
          <mxGeometry x="765" y="830" width="100" height="250" as="geometry" />
        </mxCell>
        <mxCell id="jILajoDedbYtFzf_JmT7-10" value="" style="points=[];perimeter=orthogonalPerimeter;rounded=0;shadow=0;strokeWidth=1;" vertex="1" parent="jILajoDedbYtFzf_JmT7-9">
          <mxGeometry x="45" y="80" width="10" height="140" as="geometry" />
        </mxCell>
        <mxCell id="jILajoDedbYtFzf_JmT7-11" value="run" style="verticalAlign=bottom;endArrow=block;shadow=0;strokeWidth=1;exitX=1.159;exitY=0.075;exitDx=0;exitDy=0;exitPerimeter=0;" edge="1" parent="1">
          <mxGeometry relative="1" as="geometry">
            <mxPoint x="521.5899999999999" y="939" as="sourcePoint" />
            <mxPoint x="664.5" y="939" as="targetPoint" />
          </mxGeometry>
        </mxCell>
        <mxCell id="jILajoDedbYtFzf_JmT7-12" value="super" style="verticalAlign=bottom;endArrow=block;shadow=0;strokeWidth=1;" edge="1" parent="1">
          <mxGeometry relative="1" as="geometry">
            <mxPoint x="670" y="978.5999999999999" as="sourcePoint" />
            <mxPoint x="814.5" y="978.5999999999999" as="targetPoint" />
          </mxGeometry>
        </mxCell>
        <mxCell id="jILajoDedbYtFzf_JmT7-13" value="&lt;font style=&quot;font-size: 30px&quot;&gt;Start Data Generation(&lt;/font&gt;&lt;font style=&quot;font-size: 20px&quot;&gt;/api/startTransactionsGeneration&lt;/font&gt;&lt;font style=&quot;font-size: 30px&quot;&gt;)&lt;/font&gt;" style="text;html=1;strokeColor=none;fillColor=none;align=center;verticalAlign=middle;whiteSpace=wrap;rounded=0;" vertex="1" parent="1">
          <mxGeometry x="350" y="750" width="690" height="50" as="geometry" />
        </mxCell>
        <mxCell id="jILajoDedbYtFzf_JmT7-14" value=":Transaction &#xa;Generator" style="shape=umlLifeline;perimeter=lifelinePerimeter;container=1;collapsible=0;recursiveResize=0;rounded=0;shadow=0;strokeWidth=1;" vertex="1" parent="1">
          <mxGeometry x="920.5" y="830" width="100" height="250" as="geometry" />
        </mxCell>
        <mxCell id="jILajoDedbYtFzf_JmT7-15" value="" style="points=[];perimeter=orthogonalPerimeter;rounded=0;shadow=0;strokeWidth=1;" vertex="1" parent="jILajoDedbYtFzf_JmT7-14">
          <mxGeometry x="45" y="80" width="10" height="140" as="geometry" />
        </mxCell>
        <mxCell id="jILajoDedbYtFzf_JmT7-16" value="run" style="verticalAlign=bottom;endArrow=block;shadow=0;strokeWidth=1;" edge="1" parent="1">
          <mxGeometry relative="1" as="geometry">
            <mxPoint x="670" y="1002" as="sourcePoint" />
            <mxPoint x="964.75" y="1002" as="targetPoint" />
          </mxGeometry>
        </mxCell>
        <mxCell id="jILajoDedbYtFzf_JmT7-17" value=":Throttler" style="shape=umlLifeline;perimeter=lifelinePerimeter;container=1;collapsible=0;recursiveResize=0;rounded=0;shadow=0;strokeWidth=1;" vertex="1" parent="1">
          <mxGeometry x="1090" y="830" width="100" height="250" as="geometry" />
        </mxCell>
        <mxCell id="jILajoDedbYtFzf_JmT7-18" value="" style="points=[];perimeter=orthogonalPerimeter;rounded=0;shadow=0;strokeWidth=1;" vertex="1" parent="jILajoDedbYtFzf_JmT7-17">
          <mxGeometry x="45" y="80" width="10" height="140" as="geometry" />
        </mxCell>
        <mxCell id="jILajoDedbYtFzf_JmT7-19" value="throttle" style="verticalAlign=bottom;endArrow=block;shadow=0;strokeWidth=1;exitX=1.462;exitY=0.838;exitDx=0;exitDy=0;exitPerimeter=0;" edge="1" parent="1" source="jILajoDedbYtFzf_JmT7-15" target="jILajoDedbYtFzf_JmT7-18">
          <mxGeometry relative="1" as="geometry">
            <mxPoint x="990" y="1040" as="sourcePoint" />
            <mxPoint x="1134.5" y="1040" as="targetPoint" />
          </mxGeometry>
        </mxCell>
        <mxCell id="jILajoDedbYtFzf_JmT7-20" value="" style="rounded=0;whiteSpace=wrap;html=1;strokeWidth=1;fillColor=none;" vertex="1" parent="1">
          <mxGeometry x="490" y="904" width="722" height="136" as="geometry" />
        </mxCell>
        <mxCell id="jILajoDedbYtFzf_JmT7-21" value="" style="shape=card;whiteSpace=wrap;html=1;strokeWidth=1;fillColor=none;rotation=-90;size=22;" vertex="1" parent="1">
          <mxGeometry x="1170" y="900" width="38" height="46" as="geometry" />
        </mxCell>
        <mxCell id="jILajoDedbYtFzf_JmT7-22" value="Loop" style="text;html=1;strokeColor=none;fillColor=none;align=center;verticalAlign=middle;whiteSpace=wrap;rounded=0;" vertex="1" parent="1">
          <mxGeometry x="1172" y="911" width="40" height="20" as="geometry" />
        </mxCell>
      </root>
    </mxGraphModel>
  </diagram>
</mxfile>
